<?xml version="1.0" encoding="UTF-8" standalone="no"?><svg xmlns="http://www.w3.org/2000/svg" xmlns:xlink="http://www.w3.org/1999/xlink" contentScriptType="application/ecmascript" contentStyleType="text/css" height="1620px" preserveAspectRatio="none" style="width:761px;height:1620px;background:#FFFFFF;" version="1.1" viewBox="0 0 761 1620" width="761px" zoomAndPan="magnify"><defs/><g><rect fill="#FFFFFF" height="310.7051" style="stroke:#A80036;stroke-width:1.0;" width="10" x="685.5" y="1016.6699"/><rect fill="#F0F8FF" height="120.1973" style="stroke:#000000;stroke-width:2.0;" width="729.5" x="10" y="160.1094"/><rect fill="#FFE0E0" height="44.2656" style="stroke:none;stroke-width:1.0;" width="729.5" x="10" y="236.041"/><rect fill="#F0F8FF" height="459.5684" style="stroke:#000000;stroke-width:2.0;" width="739.5" x="10" y="411.5488"/><rect fill="#FFE0E0" height="325.0156" style="stroke:none;stroke-width:1.0;" width="739.5" x="10" y="546.1016"/><rect fill="#FFFFFF" height="90.8867" style="stroke:#000000;stroke-width:2.0;" width="364" x="375.5" y="743.9199"/><rect fill="#FFFFFF" height="44.2656" style="stroke:none;stroke-width:1.0;" width="364" x="375.5" y="790.541"/><rect fill="#F0F8FF" height="103.8867" style="stroke:#000000;stroke-width:2.0;" width="379" x="375.5" y="1031.6699"/><rect fill="#FFE0E0" height="44.2656" style="stroke:none;stroke-width:1.0;" width="379" x="375.5" y="1091.291"/><rect fill="#F0F8FF" height="90.8867" style="stroke:#000000;stroke-width:2.0;" width="364" x="375.5" y="1178.8672"/><rect fill="#FFE0E0" height="44.2656" style="stroke:none;stroke-width:1.0;" width="364" x="375.5" y="1225.4883"/><rect fill="#F0F8FF" height="149.5078" style="stroke:#000000;stroke-width:2.0;" width="729.5" x="10" y="1371.6855"/><rect fill="#FFE0E0" height="44.2656" style="stroke:none;stroke-width:1.0;" width="729.5" x="10" y="1476.9277"/><line style="stroke:#A80036;stroke-width:1.0;stroke-dasharray:5.0,5.0;" x1="51" x2="51" y1="84.4883" y2="1538.1934"/><line style="stroke:#A80036;stroke-width:1.0;stroke-dasharray:5.0,5.0;" x1="412.5" x2="412.5" y1="84.4883" y2="1538.1934"/><line style="stroke:#A80036;stroke-width:1.0;stroke-dasharray:5.0,5.0;" x1="690.5" x2="690.5" y1="84.4883" y2="1538.1934"/><text fill="#000000" font-family="sans-serif" font-size="14" lengthAdjust="spacing" textLength="57" x="20" y="81.5352">EndUser</text><ellipse cx="51.5" cy="15" fill="#FEFECE" rx="8" ry="8" style="stroke:#A80036;stroke-width:2.0;"/><path d="M51.5,23 L51.5,50 M38.5,31 L64.5,31 M51.5,50 L38.5,65 M51.5,50 L64.5,65 " fill="none" style="stroke:#A80036;stroke-width:2.0;"/><text fill="#000000" font-family="sans-serif" font-size="14" lengthAdjust="spacing" textLength="57" x="20" y="1550.7285">EndUser</text><ellipse cx="51.5" cy="1563.6816" fill="#FEFECE" rx="8" ry="8" style="stroke:#A80036;stroke-width:2.0;"/><path d="M51.5,1571.6816 L51.5,1598.6816 M38.5,1579.6816 L64.5,1579.6816 M51.5,1598.6816 L38.5,1613.6816 M51.5,1598.6816 L64.5,1613.6816 " fill="none" style="stroke:#A80036;stroke-width:2.0;"/><rect fill="#FEFECE" height="30.4883" style="stroke:#A80036;stroke-width:1.5;" width="54" x="385.5" y="53"/><text fill="#000000" font-family="sans-serif" font-size="14" lengthAdjust="spacing" textLength="40" x="392.5" y="73.5352">Client</text><rect fill="#FEFECE" height="30.4883" style="stroke:#A80036;stroke-width:1.5;" width="54" x="385.5" y="1537.1934"/><text fill="#000000" font-family="sans-serif" font-size="14" lengthAdjust="spacing" textLength="40" x="392.5" y="1557.7285">Client</text><rect fill="#FEFECE" height="30.4883" style="stroke:#A80036;stroke-width:1.5;" width="78" x="651.5" y="53"/><text fill="#000000" font-family="sans-serif" font-size="14" lengthAdjust="spacing" textLength="64" x="658.5" y="73.5352">Mercuryo</text><rect fill="#FEFECE" height="30.4883" style="stroke:#A80036;stroke-width:1.5;" width="78" x="651.5" y="1537.1934"/><text fill="#000000" font-family="sans-serif" font-size="14" lengthAdjust="spacing" textLength="64" x="658.5" y="1557.7285">Mercuryo</text><rect fill="#FFFFFF" height="310.7051" style="stroke:#A80036;stroke-width:1.0;" width="10" x="685.5" y="1016.6699"/><polygon fill="#A80036" points="400.5,111.7988,410.5,115.7988,400.5,119.7988,404.5,115.7988" style="stroke:#A80036;stroke-width:1.0;"/><line style="stroke:#A80036;stroke-width:1.0;" x1="51.5" x2="406.5" y1="115.7988" y2="115.7988"/><text fill="#000000" font-family="sans-serif" font-size="13" font-weight="bold" lengthAdjust="spacing" textLength="9" x="58.5" y="111.0566">1</text><text fill="#000000" font-family="sans-serif" font-size="13" lengthAdjust="spacing" textLength="125" x="71.5" y="111.0566">open crypto section</text><polygon fill="#A80036" points="678.5,141.1094,688.5,145.1094,678.5,149.1094,682.5,145.1094" style="stroke:#A80036;stroke-width:1.0;"/><line style="stroke:#A80036;stroke-width:1.0;" x1="412.5" x2="684.5" y1="145.1094" y2="145.1094"/><text fill="#000000" font-family="sans-serif" font-size="13" font-weight="bold" lengthAdjust="spacing" textLength="9" x="419.5" y="140.3672">2</text><text fill="#000000" font-family="sans-serif" font-size="13" lengthAdjust="spacing" textLength="145" x="432.5" y="140.3672">/sdk-partner/sign-in()</text><path d="M10,160.1094 L72,160.1094 L72,167.1094 L62,177.1094 L10,177.1094 L10,160.1094 " fill="#FFD700" style="stroke:#000000;stroke-width:1.0;"/><rect fill="none" height="120.1973" style="stroke:#000000;stroke-width:2.0;" width="729.5" x="10" y="160.1094"/><text fill="#000000" font-family="sans-serif" font-size="13" font-weight="bold" lengthAdjust="spacing" textLength="17" x="25" y="173.6777">alt</text><text fill="#000000" font-family="sans-serif" font-size="11" font-weight="bold" lengthAdjust="spacing" textLength="82" x="87" y="172.7441">[Unauthorized]</text><polygon fill="#A80036" points="423.5,194.7305,413.5,198.7305,423.5,202.7305,419.5,198.7305" style="stroke:#A80036;stroke-width:1.0;"/><line style="stroke:#A80036;stroke-width:1.0;stroke-dasharray:2.0,2.0;" x1="417.5" x2="689.5" y1="198.7305" y2="198.7305"/><text fill="#000000" font-family="sans-serif" font-size="13" font-weight="bold" lengthAdjust="spacing" textLength="9" x="582.5" y="193.9883">3</text><text fill="#000000" font-family="sans-serif" font-size="13" lengthAdjust="spacing" textLength="88" x="595.5" y="193.9883">http code 401</text><polygon fill="#A80036" points="62.5,224.041,52.5,228.041,62.5,232.041,58.5,228.041" style="stroke:#A80036;stroke-width:1.0;"/><line style="stroke:#A80036;stroke-width:1.0;stroke-dasharray:2.0,2.0;" x1="56.5" x2="411.5" y1="228.041" y2="228.041"/><text fill="#000000" font-family="sans-serif" font-size="13" font-weight="bold" lengthAdjust="spacing" textLength="9" x="304.5" y="223.2988">4</text><text fill="#000000" font-family="sans-serif" font-size="13" lengthAdjust="spacing" textLength="88" x="317.5" y="223.2988">http code 401</text><line style="stroke:#000000;stroke-width:1.0;stroke-dasharray:2.0,2.0;" x1="10" x2="739.5" y1="237.041" y2="237.041"/><text fill="#000000" font-family="sans-serif" font-size="11" font-weight="bold" lengthAdjust="spacing" textLength="69" x="15" y="247.6758">[Authorized]</text><polygon fill="#A80036" points="423.5,268.3066,413.5,272.3066,423.5,276.3066,419.5,272.3066" style="stroke:#A80036;stroke-width:1.0;"/><line style="stroke:#A80036;stroke-width:1.0;stroke-dasharray:2.0,2.0;" x1="417.5" x2="689.5" y1="272.3066" y2="272.3066"/><text fill="#000000" font-family="sans-serif" font-size="13" font-weight="bold" lengthAdjust="spacing" textLength="9" x="582.5" y="267.5645">5</text><text fill="#000000" font-family="sans-serif" font-size="13" lengthAdjust="spacing" textLength="88" x="595.5" y="267.5645">http code 200</text><polygon fill="#A80036" points="400.5,304.6172,410.5,308.6172,400.5,312.6172,404.5,308.6172" style="stroke:#A80036;stroke-width:1.0;"/><line style="stroke:#A80036;stroke-width:1.0;" x1="51.5" x2="406.5" y1="308.6172" y2="308.6172"/><text fill="#000000" font-family="sans-serif" font-size="13" font-weight="bold" lengthAdjust="spacing" textLength="9" x="58.5" y="303.875">6</text><text fill="#000000" font-family="sans-serif" font-size="13" lengthAdjust="spacing" textLength="124" x="71.5" y="303.875">choose send option</text><polygon fill="#A80036" points="678.5,333.9277,688.5,337.9277,678.5,341.9277,682.5,337.9277" style="stroke:#A80036;stroke-width:1.0;"/><line style="stroke:#A80036;stroke-width:1.0;" x1="412.5" x2="684.5" y1="337.9277" y2="337.9277"/><text fill="#000000" font-family="sans-serif" font-size="13" font-weight="bold" lengthAdjust="spacing" textLength="9" x="419.5" y="333.1855">7</text><text fill="#000000" font-family="sans-serif" font-size="13" lengthAdjust="spacing" textLength="167" x="432.5" y="333.1855">GET /b2b/lasttransactions</text><polygon fill="#A80036" points="423.5,363.2383,413.5,367.2383,423.5,371.2383,419.5,367.2383" style="stroke:#A80036;stroke-width:1.0;"/><line style="stroke:#A80036;stroke-width:1.0;stroke-dasharray:2.0,2.0;" x1="417.5" x2="689.5" y1="367.2383" y2="367.2383"/><text fill="#000000" font-family="sans-serif" font-size="13" font-weight="bold" lengthAdjust="spacing" textLength="9" x="455.5" y="362.4961">8</text><text fill="#000000" font-family="sans-serif" font-size="13" lengthAdjust="spacing" textLength="215" x="468.5" y="362.4961">recent transactions and addresses</text><polygon fill="#A80036" points="62.5,392.5488,52.5,396.5488,62.5,400.5488,58.5,396.5488" style="stroke:#A80036;stroke-width:1.0;"/><line style="stroke:#A80036;stroke-width:1.0;stroke-dasharray:2.0,2.0;" x1="56.5" x2="411.5" y1="396.5488" y2="396.5488"/><text fill="#000000" font-family="sans-serif" font-size="13" font-weight="bold" lengthAdjust="spacing" textLength="9" x="128.5" y="391.8066">9</text><text fill="#000000" font-family="sans-serif" font-size="13" lengthAdjust="spacing" textLength="264" x="141.5" y="391.8066">display recent transactions and addresses</text><path d="M10,411.5488 L72,411.5488 L72,418.5488 L62,428.5488 L10,428.5488 L10,411.5488 " fill="#FFD700" style="stroke:#000000;stroke-width:1.0;"/><rect fill="none" height="459.5684" style="stroke:#000000;stroke-width:2.0;" width="739.5" x="10" y="411.5488"/><text fill="#000000" font-family="sans-serif" font-size="13" font-weight="bold" lengthAdjust="spacing" textLength="17" x="25" y="425.1172">alt</text><text fill="#000000" font-family="sans-serif" font-size="11" font-weight="bold" lengthAdjust="spacing" textLength="104" x="87" y="424.1836">[wallet is selected]</text><polygon fill="#A80036" points="400.5,446.1699,410.5,450.1699,400.5,454.1699,404.5,450.1699" style="stroke:#A80036;stroke-width:1.0;"/><line style="stroke:#A80036;stroke-width:1.0;" x1="51.5" x2="406.5" y1="450.1699" y2="450.1699"/><text fill="#000000" font-family="sans-serif" font-size="13" font-weight="bold" lengthAdjust="spacing" textLength="18" x="58.5" y="445.4277">10</text><text fill="#000000" font-family="sans-serif" font-size="13" lengthAdjust="spacing" textLength="315" x="80.5" y="445.4277">crypto currency selected &amp; crypto address entered</text><polygon fill="#A80036" points="678.5,475.4805,688.5,479.4805,678.5,483.4805,682.5,479.4805" style="stroke:#A80036;stroke-width:1.0;"/><line style="stroke:#A80036;stroke-width:1.0;" x1="412.5" x2="684.5" y1="479.4805" y2="479.4805"/><text fill="#000000" font-family="sans-serif" font-size="13" font-weight="bold" lengthAdjust="spacing" textLength="18" x="419.5" y="474.7383">11</text><text fill="#000000" font-family="sans-serif" font-size="13" lengthAdjust="spacing" textLength="101" x="441.5" y="474.7383">/b2b/user/limit</text><polygon fill="#A80036" points="423.5,504.791,413.5,508.791,423.5,512.791,419.5,508.791" style="stroke:#A80036;stroke-width:1.0;"/><line style="stroke:#A80036;stroke-width:1.0;stroke-dasharray:2.0,2.0;" x1="417.5" x2="689.5" y1="508.791" y2="508.791"/><text fill="#000000" font-family="sans-serif" font-size="13" font-weight="bold" lengthAdjust="spacing" textLength="18" x="625.5" y="504.0488">12</text><text fill="#000000" font-family="sans-serif" font-size="13" lengthAdjust="spacing" textLength="36" x="647.5" y="504.0488">limits</text><polygon fill="#A80036" points="62.5,534.1016,52.5,538.1016,62.5,542.1016,58.5,538.1016" style="stroke:#A80036;stroke-width:1.0;"/><line style="stroke:#A80036;stroke-width:1.0;stroke-dasharray:2.0,2.0;" x1="56.5" x2="411.5" y1="538.1016" y2="538.1016"/><text fill="#000000" font-family="sans-serif" font-size="13" font-weight="bold" lengthAdjust="spacing" textLength="18" x="347.5" y="533.3594">13</text><text fill="#000000" font-family="sans-serif" font-size="13" lengthAdjust="spacing" textLength="36" x="369.5" y="533.3594">limits</text><line style="stroke:#000000;stroke-width:1.0;stroke-dasharray:2.0,2.0;" x1="10" x2="749.5" y1="547.1016" y2="547.1016"/><text fill="#000000" font-family="sans-serif" font-size="11" font-weight="bold" lengthAdjust="spacing" textLength="67" x="15" y="557.7363">[new wallet]</text><polygon fill="#A80036" points="400.5,578.3672,410.5,582.3672,400.5,586.3672,404.5,582.3672" style="stroke:#A80036;stroke-width:1.0;"/><line style="stroke:#A80036;stroke-width:1.0;" x1="51.5" x2="406.5" y1="582.3672" y2="582.3672"/><text fill="#000000" font-family="sans-serif" font-size="13" font-weight="bold" lengthAdjust="spacing" textLength="18" x="58.5" y="577.625">14</text><text fill="#000000" font-family="sans-serif" font-size="13" lengthAdjust="spacing" textLength="89" x="80.5" y="577.625">choose crypto</text><polygon fill="#A80036" points="678.5,607.6777,688.5,611.6777,678.5,615.6777,682.5,611.6777" style="stroke:#A80036;stroke-width:1.0;"/><line style="stroke:#A80036;stroke-width:1.0;" x1="412.5" x2="684.5" y1="611.6777" y2="611.6777"/><text fill="#000000" font-family="sans-serif" font-size="13" font-weight="bold" lengthAdjust="spacing" textLength="18" x="419.5" y="606.9355">15</text><text fill="#000000" font-family="sans-serif" font-size="13" lengthAdjust="spacing" textLength="101" x="441.5" y="606.9355">/b2b/user/limit</text><polygon fill="#A80036" points="423.5,636.9883,413.5,640.9883,423.5,644.9883,419.5,640.9883" style="stroke:#A80036;stroke-width:1.0;"/><line style="stroke:#A80036;stroke-width:1.0;stroke-dasharray:2.0,2.0;" x1="417.5" x2="689.5" y1="640.9883" y2="640.9883"/><text fill="#000000" font-family="sans-serif" font-size="13" font-weight="bold" lengthAdjust="spacing" textLength="18" x="625.5" y="636.2461">16</text><text fill="#000000" font-family="sans-serif" font-size="13" lengthAdjust="spacing" textLength="36" x="647.5" y="636.2461">limits</text><polygon fill="#A80036" points="62.5,666.2988,52.5,670.2988,62.5,674.2988,58.5,670.2988" style="stroke:#A80036;stroke-width:1.0;"/><line style="stroke:#A80036;stroke-width:1.0;stroke-dasharray:2.0,2.0;" x1="56.5" x2="411.5" y1="670.2988" y2="670.2988"/><text fill="#000000" font-family="sans-serif" font-size="13" font-weight="bold" lengthAdjust="spacing" textLength="18" x="347.5" y="665.5566">17</text><text fill="#000000" font-family="sans-serif" font-size="13" lengthAdjust="spacing" textLength="36" x="369.5" y="665.5566">limits</text><polygon fill="#A80036" points="400.5,695.6094,410.5,699.6094,400.5,703.6094,404.5,699.6094" style="stroke:#A80036;stroke-width:1.0;"/><line style="stroke:#A80036;stroke-width:1.0;" x1="51.5" x2="406.5" y1="699.6094" y2="699.6094"/><text fill="#000000" font-family="sans-serif" font-size="13" font-weight="bold" lengthAdjust="spacing" textLength="18" x="58.5" y="694.8672">18</text><text fill="#000000" font-family="sans-serif" font-size="13" lengthAdjust="spacing" textLength="235" x="80.5" y="694.8672">enter crypto address or domain name</text><polygon fill="#A80036" points="678.5,724.9199,688.5,728.9199,678.5,732.9199,682.5,728.9199" style="stroke:#A80036;stroke-width:1.0;"/><line style="stroke:#A80036;stroke-width:1.0;" x1="412.5" x2="684.5" y1="728.9199" y2="728.9199"/><text fill="#000000" font-family="sans-serif" font-size="13" font-weight="bold" lengthAdjust="spacing" textLength="18" x="419.5" y="724.1777">19</text><text fill="#000000" font-family="sans-serif" font-size="13" lengthAdjust="spacing" textLength="112" x="441.5" y="724.1777">/validate/address</text><path d="M375.5,743.9199 L437.5,743.9199 L437.5,750.9199 L427.5,760.9199 L375.5,760.9199 L375.5,743.9199 " fill="#FFD700" style="stroke:#000000;stroke-width:1.0;"/><rect fill="none" height="90.8867" style="stroke:#000000;stroke-width:2.0;" width="364" x="375.5" y="743.9199"/><text fill="#000000" font-family="sans-serif" font-size="13" font-weight="bold" lengthAdjust="spacing" textLength="17" x="390.5" y="757.4883">alt</text><text fill="#000000" font-family="sans-serif" font-size="11" font-weight="bold" lengthAdjust="spacing" textLength="51" x="452.5" y="756.5547">[success]</text><polygon fill="#A80036" points="423.5,778.541,413.5,782.541,423.5,786.541,419.5,782.541" style="stroke:#A80036;stroke-width:1.0;"/><line style="stroke:#A80036;stroke-width:1.0;stroke-dasharray:2.0,2.0;" x1="417.5" x2="689.5" y1="782.541" y2="782.541"/><text fill="#000000" font-family="sans-serif" font-size="13" font-weight="bold" lengthAdjust="spacing" textLength="18" x="607.5" y="777.7988">20</text><text fill="#000000" font-family="sans-serif" font-size="13" lengthAdjust="spacing" textLength="54" x="629.5" y="777.7988">http 200</text><line style="stroke:#000000;stroke-width:1.0;stroke-dasharray:2.0,2.0;" x1="375.5" x2="739.5" y1="791.541" y2="791.541"/><text fill="#000000" font-family="sans-serif" font-size="11" font-weight="bold" lengthAdjust="spacing" textLength="36" x="380.5" y="802.1758">[error]</text><polygon fill="#A80036" points="423.5,822.8066,413.5,826.8066,423.5,830.8066,419.5,826.8066" style="stroke:#A80036;stroke-width:1.0;"/><line style="stroke:#A80036;stroke-width:1.0;stroke-dasharray:2.0,2.0;" x1="417.5" x2="689.5" y1="826.8066" y2="826.8066"/><text fill="#000000" font-family="sans-serif" font-size="13" font-weight="bold" lengthAdjust="spacing" textLength="18" x="607.5" y="822.0645">21</text><text fill="#000000" font-family="sans-serif" font-size="13" lengthAdjust="spacing" textLength="54" x="629.5" y="822.0645">http 422</text><polygon fill="#A80036" points="62.5,859.1172,52.5,863.1172,62.5,867.1172,58.5,863.1172" style="stroke:#A80036;stroke-width:1.0;"/><line style="stroke:#A80036;stroke-width:1.0;stroke-dasharray:2.0,2.0;" x1="56.5" x2="411.5" y1="863.1172" y2="863.1172"/><text fill="#000000" font-family="sans-serif" font-size="13" font-weight="bold" lengthAdjust="spacing" textLength="18" x="195.5" y="858.375">22</text><text fill="#000000" font-family="sans-serif" font-size="13" lengthAdjust="spacing" textLength="188" x="217.5" y="858.375">redirect to enter address page</text><polygon fill="#A80036" points="400.5,895.4277,410.5,899.4277,400.5,903.4277,404.5,899.4277" style="stroke:#A80036;stroke-width:1.0;"/><line style="stroke:#A80036;stroke-width:1.0;" x1="51.5" x2="406.5" y1="899.4277" y2="899.4277"/><text fill="#000000" font-family="sans-serif" font-size="13" font-weight="bold" lengthAdjust="spacing" textLength="18" x="58.5" y="894.6855">23</text><text fill="#000000" font-family="sans-serif" font-size="13" lengthAdjust="spacing" textLength="84" x="80.5" y="894.6855">enter amount</text><polygon fill="#A80036" points="678.5,924.7383,688.5,928.7383,678.5,932.7383,682.5,928.7383" style="stroke:#A80036;stroke-width:1.0;"/><line style="stroke:#A80036;stroke-width:1.0;" x1="412.5" x2="684.5" y1="928.7383" y2="928.7383"/><text fill="#000000" font-family="sans-serif" font-size="13" font-weight="bold" lengthAdjust="spacing" textLength="18" x="419.5" y="923.9961">24</text><text fill="#000000" font-family="sans-serif" font-size="13" lengthAdjust="spacing" textLength="232" x="441.5" y="923.9961">GET /b2b/cs/withdraw/estimate-fee</text><polygon fill="#A80036" points="423.5,954.0488,413.5,958.0488,423.5,962.0488,419.5,958.0488" style="stroke:#A80036;stroke-width:1.0;"/><line style="stroke:#A80036;stroke-width:1.0;stroke-dasharray:2.0,2.0;" x1="417.5" x2="689.5" y1="958.0488" y2="958.0488"/><text fill="#000000" font-family="sans-serif" font-size="13" font-weight="bold" lengthAdjust="spacing" textLength="18" x="507.5" y="953.3066">25</text><text fill="#000000" font-family="sans-serif" font-size="13" lengthAdjust="spacing" textLength="154" x="529.5" y="953.3066">show fee &amp; total amount</text><polygon fill="#A80036" points="400.5,983.3594,410.5,987.3594,400.5,991.3594,404.5,987.3594" style="stroke:#A80036;stroke-width:1.0;"/><line style="stroke:#A80036;stroke-width:1.0;" x1="51.5" x2="406.5" y1="987.3594" y2="987.3594"/><text fill="#000000" font-family="sans-serif" font-size="13" font-weight="bold" lengthAdjust="spacing" textLength="18" x="58.5" y="982.6172">26</text><text fill="#000000" font-family="sans-serif" font-size="13" lengthAdjust="spacing" textLength="44" x="80.5" y="982.6172">submit</text><polygon fill="#A80036" points="673.5,1012.6699,683.5,1016.6699,673.5,1020.6699,677.5,1016.6699" style="stroke:#A80036;stroke-width:1.0;"/><line style="stroke:#A80036;stroke-width:1.0;" x1="412.5" x2="679.5" y1="1016.6699" y2="1016.6699"/><text fill="#000000" font-family="sans-serif" font-size="13" font-weight="bold" lengthAdjust="spacing" textLength="18" x="419.5" y="1011.9277">27</text><text fill="#000000" font-family="sans-serif" font-size="13" lengthAdjust="spacing" textLength="129" x="441.5" y="1011.9277">/b2b/user/withdraw</text><path d="M375.5,1031.6699 L437.5,1031.6699 L437.5,1038.6699 L427.5,1048.6699 L375.5,1048.6699 L375.5,1031.6699 " fill="#FFD700" style="stroke:#000000;stroke-width:1.0;"/><rect fill="none" height="103.8867" style="stroke:#000000;stroke-width:2.0;" width="379" x="375.5" y="1031.6699"/><text fill="#000000" font-family="sans-serif" font-size="13" font-weight="bold" lengthAdjust="spacing" textLength="17" x="390.5" y="1045.2383">alt</text><text fill="#000000" font-family="sans-serif" font-size="11" font-weight="bold" lengthAdjust="spacing" textLength="250" x="452.5" y="1044.3047">[check merchant transaction for duplication]</text><line style="stroke:#A80036;stroke-width:1.0;" x1="695.5" x2="737.5" y1="1070.291" y2="1070.291"/><line style="stroke:#A80036;stroke-width:1.0;" x1="737.5" x2="737.5" y1="1070.291" y2="1083.291"/><line style="stroke:#A80036;stroke-width:1.0;" x1="696.5" x2="737.5" y1="1083.291" y2="1083.291"/><polygon fill="#A80036" points="706.5,1079.291,696.5,1083.291,706.5,1087.291,702.5,1083.291" style="stroke:#A80036;stroke-width:1.0;"/><text fill="#000000" font-family="sans-serif" font-size="13" font-weight="bold" lengthAdjust="spacing" textLength="18" x="702.5" y="1065.5488">28</text><text fill="#000000" font-family="sans-serif" font-size="13" lengthAdjust="spacing" textLength="18" x="724.5" y="1065.5488">OK</text><line style="stroke:#000000;stroke-width:1.0;stroke-dasharray:2.0,2.0;" x1="375.5" x2="754.5" y1="1092.291" y2="1092.291"/><text fill="#000000" font-family="sans-serif" font-size="11" font-weight="bold" lengthAdjust="spacing" textLength="37" x="380.5" y="1102.9258">[Error]</text><polygon fill="#A80036" points="423.5,1123.5566,413.5,1127.5566,423.5,1131.5566,419.5,1127.5566" style="stroke:#A80036;stroke-width:1.0;"/><line style="stroke:#A80036;stroke-width:1.0;" x1="417.5" x2="684.5" y1="1127.5566" y2="1127.5566"/><text fill="#000000" font-family="sans-serif" font-size="13" font-weight="bold" lengthAdjust="spacing" textLength="18" x="576.5" y="1122.8145">29</text><text fill="#000000" font-family="sans-serif" font-size="13" lengthAdjust="spacing" textLength="80" x="598.5" y="1122.8145">already done</text><polygon fill="#A80036" points="423.5,1159.8672,413.5,1163.8672,423.5,1167.8672,419.5,1163.8672" style="stroke:#A80036;stroke-width:1.0;"/><line style="stroke:#A80036;stroke-width:1.0;" x1="417.5" x2="684.5" y1="1163.8672" y2="1163.8672"/><text fill="#000000" font-family="sans-serif" font-size="13" font-weight="bold" lengthAdjust="spacing" textLength="18" x="518.5" y="1159.125">30</text><text fill="#000000" font-family="sans-serif" font-size="13" lengthAdjust="spacing" textLength="138" x="540.5" y="1159.125">check order existence</text><path d="M375.5,1178.8672 L437.5,1178.8672 L437.5,1185.8672 L427.5,1195.8672 L375.5,1195.8672 L375.5,1178.8672 " fill="#FFD700" style="stroke:#000000;stroke-width:1.0;"/><rect fill="none" height="90.8867" style="stroke:#000000;stroke-width:2.0;" width="364" x="375.5" y="1178.8672"/><text fill="#000000" font-family="sans-serif" font-size="13" font-weight="bold" lengthAdjust="spacing" textLength="17" x="390.5" y="1192.4355">alt</text><text fill="#000000" font-family="sans-serif" font-size="11" font-weight="bold" lengthAdjust="spacing" textLength="51" x="452.5" y="1191.502">[success]</text><polygon fill="#A80036" points="673.5,1213.4883,683.5,1217.4883,673.5,1221.4883,677.5,1217.4883" style="stroke:#A80036;stroke-width:1.0;"/><line style="stroke:#A80036;stroke-width:1.0;stroke-dasharray:2.0,2.0;" x1="412.5" x2="679.5" y1="1217.4883" y2="1217.4883"/><text fill="#000000" font-family="sans-serif" font-size="13" font-weight="bold" lengthAdjust="spacing" textLength="18" x="419.5" y="1212.7461">31</text><text fill="#000000" font-family="sans-serif" font-size="13" lengthAdjust="spacing" textLength="54" x="441.5" y="1212.7461">http 200</text><line style="stroke:#000000;stroke-width:1.0;stroke-dasharray:2.0,2.0;" x1="375.5" x2="739.5" y1="1226.4883" y2="1226.4883"/><text fill="#000000" font-family="sans-serif" font-size="11" font-weight="bold" lengthAdjust="spacing" textLength="36" x="380.5" y="1237.123">[error]</text><polygon fill="#A80036" points="673.5,1257.7539,683.5,1261.7539,673.5,1265.7539,677.5,1261.7539" style="stroke:#A80036;stroke-width:1.0;"/><line style="stroke:#A80036;stroke-width:1.0;stroke-dasharray:2.0,2.0;" x1="412.5" x2="679.5" y1="1261.7539" y2="1261.7539"/><text fill="#000000" font-family="sans-serif" font-size="13" font-weight="bold" lengthAdjust="spacing" textLength="18" x="419.5" y="1257.0117">32</text><text fill="#000000" font-family="sans-serif" font-size="13" lengthAdjust="spacing" textLength="54" x="441.5" y="1257.0117">http 403</text><polygon fill="#A80036" points="62.5,1294.0645,52.5,1298.0645,62.5,1302.0645,58.5,1298.0645" style="stroke:#A80036;stroke-width:1.0;"/><line style="stroke:#A80036;stroke-width:1.0;" x1="56.5" x2="684.5" y1="1298.0645" y2="1298.0645"/><text fill="#000000" font-family="sans-serif" font-size="13" font-weight="bold" lengthAdjust="spacing" textLength="18" x="392.5" y="1293.3223">33</text><text fill="#000000" font-family="sans-serif" font-size="13" lengthAdjust="spacing" textLength="264" x="414.5" y="1293.3223">send confirmation code to email or phone</text><polygon fill="#A80036" points="423.5,1323.375,413.5,1327.375,423.5,1331.375,419.5,1327.375" style="stroke:#A80036;stroke-width:1.0;"/><line style="stroke:#A80036;stroke-width:1.0;stroke-dasharray:2.0,2.0;" x1="417.5" x2="689.5" y1="1327.375" y2="1327.375"/><text fill="#000000" font-family="sans-serif" font-size="13" font-weight="bold" lengthAdjust="spacing" textLength="18" x="607.5" y="1322.6328">34</text><text fill="#000000" font-family="sans-serif" font-size="13" lengthAdjust="spacing" textLength="54" x="629.5" y="1322.6328">http 200</text><polygon fill="#A80036" points="62.5,1352.6855,52.5,1356.6855,62.5,1360.6855,58.5,1356.6855" style="stroke:#A80036;stroke-width:1.0;"/><line style="stroke:#A80036;stroke-width:1.0;stroke-dasharray:2.0,2.0;" x1="56.5" x2="411.5" y1="1356.6855" y2="1356.6855"/><text fill="#000000" font-family="sans-serif" font-size="13" font-weight="bold" lengthAdjust="spacing" textLength="18" x="229.5" y="1351.9434">35</text><text fill="#000000" font-family="sans-serif" font-size="13" lengthAdjust="spacing" textLength="154" x="251.5" y="1351.9434">show page to enter code</text><path d="M10,1371.6855 L72,1371.6855 L72,1378.6855 L62,1388.6855 L10,1388.6855 L10,1371.6855 " fill="#FFD700" style="stroke:#000000;stroke-width:1.0;"/><rect fill="none" height="149.5078" style="stroke:#000000;stroke-width:2.0;" width="729.5" x="10" y="1371.6855"/><text fill="#000000" font-family="sans-serif" font-size="13" font-weight="bold" lengthAdjust="spacing" textLength="17" x="25" y="1385.2539">alt</text><text fill="#000000" font-family="sans-serif" font-size="11" font-weight="bold" lengthAdjust="spacing" textLength="51" x="87" y="1384.3203">[success]</text><polygon fill="#A80036" points="400.5,1406.3066,410.5,1410.3066,400.5,1414.3066,404.5,1410.3066" style="stroke:#A80036;stroke-width:1.0;"/><line style="stroke:#A80036;stroke-width:1.0;" x1="51.5" x2="406.5" y1="1410.3066" y2="1410.3066"/><text fill="#000000" font-family="sans-serif" font-size="13" font-weight="bold" lengthAdjust="spacing" textLength="18" x="58.5" y="1405.5645">36</text><text fill="#000000" font-family="sans-serif" font-size="13" lengthAdjust="spacing" textLength="151" x="80.5" y="1405.5645">enter confirmation code</text><polygon fill="#A80036" points="678.5,1435.6172,688.5,1439.6172,678.5,1443.6172,682.5,1439.6172" style="stroke:#A80036;stroke-width:1.0;"/><line style="stroke:#A80036;stroke-width:1.0;" x1="412.5" x2="684.5" y1="1439.6172" y2="1439.6172"/><text fill="#000000" font-family="sans-serif" font-size="13" font-weight="bold" lengthAdjust="spacing" textLength="18" x="419.5" y="1434.875">37</text><text fill="#000000" font-family="sans-serif" font-size="13" lengthAdjust="spacing" textLength="158" x="441.5" y="1434.875">/b2b/cs/withdraw/verify</text><polygon fill="#A80036" points="423.5,1464.9277,413.5,1468.9277,423.5,1472.9277,419.5,1468.9277" style="stroke:#A80036;stroke-width:1.0;"/><line style="stroke:#A80036;stroke-width:1.0;stroke-dasharray:2.0,2.0;" x1="417.5" x2="689.5" y1="1468.9277" y2="1468.9277"/><text fill="#000000" font-family="sans-serif" font-size="13" font-weight="bold" lengthAdjust="spacing" textLength="18" x="643.5" y="1464.1855">38</text><text fill="#000000" font-family="sans-serif" font-size="13" lengthAdjust="spacing" textLength="18" x="665.5" y="1464.1855">OK</text><line style="stroke:#000000;stroke-width:1.0;stroke-dasharray:2.0,2.0;" x1="10" x2="739.5" y1="1477.9277" y2="1477.9277"/><text fill="#000000" font-family="sans-serif" font-size="11" font-weight="bold" lengthAdjust="spacing" textLength="36" x="15" y="1488.5625">[error]</text><polygon fill="#A80036" points="400.5,1509.1934,410.5,1513.1934,400.5,1517.1934,404.5,1513.1934" style="stroke:#A80036;stroke-width:1.0;"/><line style="stroke:#A80036;stroke-width:1.0;" x1="51.5" x2="406.5" y1="1513.1934" y2="1513.1934"/><text fill="#000000" font-family="sans-serif" font-size="13" font-weight="bold" lengthAdjust="spacing" textLength="18" x="58.5" y="1508.4512">39</text><text fill="#000000" font-family="sans-serif" font-size="13" lengthAdjust="spacing" textLength="119" x="80.5" y="1508.4512">ask to recend code</text><!--MD5=[f6e66aa7b3416a649016b4feab8b5a7f]
@startuml

skinparam shadowing false
skinparam SequenceMessageAlign direction

autonumber

actor EndUser as user
participant "Client" as part
participant "Mercuryo" as merc

user -> part: open crypto section
part -> merc: /sdk-partner/sign-in()
alt#Gold #AliceBlue Unauthorized
    merc - -> part: http code 401
    part - -> user: http code 401
else #IMPLEMENTATION Authorized
    merc - -> part: http code 200
end

user -> part: choose send option
part -> merc: GET /b2b/lasttransactions
merc - -> part: recent transactions and addresses
part - -> user: display recent transactions and addresses

alt#Gold #AliceBlue  wallet is selected
    user -> part: crypto currency selected & crypto address entered 
    part -> merc: /b2b/user/limit
    merc - -> part: limits
    part - -> user: limits
else #IMPLEMENTATION new wallet
    user -> part: choose crypto
    part -> merc: /b2b/user/limit
    merc - -> part: limits
    part - -> user: limits
    user -> part: enter crypto address or domain name 
    part -> merc: /validate/address
        alt#Gold  success
            merc - -> part: http 200
        else error
            merc - -> part: http 422
        end
part - -> user: redirect to enter address page 
end

user -> part: enter amount
            part -> merc: GET /b2b/cs/withdraw/estimate-fee
            merc - -> part: show fee & total amount
            user -> part: submit

part -> merc++: /b2b/user/withdraw

    alt#Gold #AliceBlue check merchant transaction for duplication
        merc -> merc: OK
    else #IMPLEMENTATION Error
        merc -> part: already done
    end

merc -> part: check order existence 
    alt#Gold #AliceBlue success
    part - -> merc: http 200

    else #IMPLEMENTATION  error
    part - -> merc: http 403
    end
merc -> user: send confirmation code to email or phone 
merc - -> part- -: http 200
part - -> user: show page to enter code
    alt#Gold #AliceBlue success
        user -> part: enter confirmation code
        part -> merc: /b2b/cs/withdraw/verify
        merc - -> part: OK
    else #IMPLEMENTATION error
        user -> part: ask to recend code
    end

@enduml

PlantUML version 1.2022.1(Tue Feb 01 22:19:58 SAMT 2022)
(GPL source distribution)
Java Runtime: Java(TM) SE Runtime Environment
JVM: Java HotSpot(TM) 64-Bit Server VM
Default Encoding: UTF-8
Language: ru
Country: RU
--></g></svg>